<svg xmlns="http://www.w3.org/2000/svg" viewBox="0 0 181.81 122.18"><defs><style>.cls-1{fill:#434142;}</style></defs><title>Asset 3</title><g id="Layer_2" data-name="Layer 2"><g id="Layer_1-2" data-name="Layer 1"><path class="cls-1" d="M125.74,67.68l-3.5,15.5c-.21-5.41-3.78-10.62-12.5-15.5,2.08-32.23-4-55.1-19-67.68-12.95,11.55-20.5,32.07-19,67.68-8.62,3.64-12.12,9.84-14,16l-2-16c-3.75,19.43-4.19,37.74,0,54.5,5-21.61,13-31.29,23-33.5-1.34,8.78.22,12.46,3,14l-5,10.5c9.08,2.54,17.78,2.8,26,0l-5-12c4.65-3.44,4.38-8.39,2-14,21.72,9.76,23.55,22.42,26,35C129.7,106.73,129.56,88.47,125.74,67.68ZM86.63,42,102,34Q100.29,41.67,86.63,42Z"/><path class="cls-1" d="M47.89,82.41,45.6,92.59c-.14-3.56-2.48-7-8.21-10.18C38.76,61.26,34.77,46.25,24.91,38,16.4,45.57,11.45,59,12.46,82.41A15.4,15.4,0,0,0,3.27,92.92L2,82.41C-.51,95.16-.79,107.18,2,118.18c3.27-14.18,8.55-20.54,15.1-22-.88,5.76.15,8.17,2,9.19l-3.28,6.89c6,1.66,11.67,1.83,17.06,0l-3.28-7.88c3.05-2.26,2.87-5.51,1.31-9.19,14.25,6.4,15.46,14.72,17.06,23C50.49,108,50.4,96.05,47.89,82.41ZM22.23,65.56l10.06-5.25Q31.2,65.33,22.23,65.56Z"/><path class="cls-1" d="M179.89,82.41,177.6,92.59c-.14-3.56-2.48-7-8.21-10.18,1.37-21.15-2.62-36.16-12.48-44.42-8.51,7.58-13.46,21-12.45,44.42a15.4,15.4,0,0,0-9.19,10.51L134,82.41c-2.46,12.75-2.74,24.77,0,35.77,3.27-14.18,8.55-20.54,15.1-22-.88,5.76.15,8.17,2,9.19l-3.28,6.89c5.95,1.66,11.67,1.83,17.06,0l-3.28-7.88c3-2.26,2.87-5.51,1.31-9.19,14.25,6.4,15.46,14.72,17.06,23C182.49,108,182.4,96.05,179.89,82.41ZM154.23,65.56l10.06-5.25Q163.2,65.33,154.23,65.56Z"/></g></g></svg>